<svg width="32" height="27" viewBox="0 0 32 27" fill="none" xmlns="http://www.w3.org/2000/svg">
<path d="M0.404 26V24.164H0.8C1.328 24.164 1.796 24.128 2.204 24.056C2.612 23.96 2.936 23.816 3.176 23.624C3.416 23.408 3.536 23.12 3.536 22.76V3.572C3.536 3.212 3.416 2.948 3.176 2.78C2.936 2.588 2.612 2.456 2.204 2.384C1.796 2.312 1.328 2.276 0.8 2.276H0.404V0.439999H10.016L16.568 21.716L15.704 21.032L22.4 0.439999H31.832V2.276H31.472C30.944 2.276 30.464 2.312 30.032 2.384C29.624 2.456 29.3 2.588 29.06 2.78C28.82 2.948 28.7 3.212 28.7 3.572V22.868C28.7 23.204 28.82 23.468 29.06 23.66C29.3 23.852 29.624 23.984 30.032 24.056C30.464 24.128 30.944 24.164 31.472 24.164H31.832V26H21.32V24.164H21.608C22.04 24.164 22.448 24.152 22.832 24.128C23.216 24.104 23.528 24.068 23.768 24.02C24.032 23.948 24.164 23.876 24.164 23.804V1.16L24.56 1.232L16.388 26.072H13.76L5.588 1.196L5.984 1.232V23.696C5.984 23.792 6.128 23.876 6.416 23.948C6.704 24.02 7.052 24.08 7.46 24.128C7.868 24.152 8.264 24.164 8.648 24.164H8.864V26H0.404Z" fill="#28180F"/>
</svg>
