<svg width="24" height="27" viewBox="0 0 24 27" fill="none" xmlns="http://www.w3.org/2000/svg">
<path d="M13.04 2.456C11.936 2.456 10.916 2.708 9.98 3.212C9.044 3.716 8.228 4.448 7.532 5.408C6.836 6.344 6.296 7.472 5.912 8.792C5.552 10.112 5.372 11.588 5.372 13.22C5.372 14.876 5.552 16.364 5.912 17.684C6.296 19.004 6.836 20.132 7.532 21.068C8.228 22.004 9.08 22.724 10.088 23.228C11.096 23.732 12.224 23.984 13.472 23.984C14.816 23.984 16.004 23.672 17.036 23.048C18.068 22.424 18.932 21.56 19.628 20.456C20.324 19.352 20.84 18.116 21.176 16.748L23.372 17.612C22.988 19.316 22.328 20.828 21.392 22.148C20.48 23.468 19.316 24.5 17.9 25.244C16.508 25.988 14.888 26.36 13.04 26.36C11.216 26.36 9.536 26.048 8 25.424C6.488 24.776 5.168 23.876 4.04 22.724C2.936 21.548 2.072 20.156 1.448 18.548C0.848 16.94 0.548 15.164 0.548 13.22C0.548 11.276 0.86 9.512 1.484 7.928C2.108 6.32 2.984 4.928 4.112 3.752C5.24 2.576 6.536 1.676 8 1.052C9.464 0.403999 11.024 0.079999 12.68 0.079999C14.336 0.079999 15.74 0.343999 16.892 0.872C18.068 1.376 19.028 2.096 19.772 3.032C20.516 3.968 21.08 5.072 21.464 6.344L19.988 6.164L20.6 0.439999H22.904V8.252H20.312C19.928 7.076 19.412 6.056 18.764 5.192C18.14 4.328 17.348 3.656 16.388 3.176C15.452 2.696 14.336 2.456 13.04 2.456Z" fill="#28180F"/>
</svg>
