<svg width="19" height="27" viewBox="0 0 19 27" fill="none" xmlns="http://www.w3.org/2000/svg">
<path d="M7.424 0.439999H18.548V2.276H18.152C17.384 2.276 16.736 2.36 16.208 2.528C15.68 2.696 15.416 3.044 15.416 3.572V17.396C15.416 19.076 15.212 20.492 14.804 21.644C14.42 22.796 13.856 23.72 13.112 24.416C12.392 25.112 11.516 25.616 10.484 25.928C9.452 26.216 8.3 26.36 7.028 26.36C5.948 26.36 4.964 26.24 4.076 26C3.188 25.76 2.408 25.448 1.736 25.064C1.064 24.656 0.5 24.236 0.044 23.804V19.628H4.004V23.66C3.572 23.54 3.212 23.384 2.924 23.192C2.66 22.976 2.48 22.772 2.384 22.58C2.312 22.388 2.324 22.244 2.42 22.148C2.54 22.028 2.744 22.004 3.032 22.076C3.248 22.412 3.524 22.736 3.86 23.048C4.22 23.36 4.628 23.612 5.084 23.804C5.564 23.972 6.128 24.056 6.776 24.056C7.664 24.056 8.42 23.876 9.044 23.516C9.668 23.132 10.136 22.46 10.448 21.5C10.784 20.54 10.952 19.196 10.952 17.468V3.572C10.952 3.212 10.832 2.948 10.592 2.78C10.352 2.588 10.016 2.456 9.584 2.384C9.176 2.312 8.696 2.276 8.144 2.276H7.424V0.439999Z" fill="#28180F"/>
</svg>
