<svg width="22" height="21" viewBox="0 0 22 21" fill="none" xmlns="http://www.w3.org/2000/svg">
<path d="M20.5 20V17.3333C20.5 15.9188 19.9996 14.5623 19.1088 13.5621C18.218 12.5619 17.0098 12 15.75 12H6.25C4.99022 12 3.78204 12.5619 2.89124 13.5621C2.00044 14.5623 1.5 15.9188 1.5 17.3333V20" stroke="#29180F" stroke-width="2" stroke-linecap="round" stroke-linejoin="round"/>
<path d="M11 10C13.4853 10 15.5 7.98528 15.5 5.5C15.5 3.01472 13.4853 1 11 1C8.51472 1 6.5 3.01472 6.5 5.5C6.5 7.98528 8.51472 10 11 10Z" stroke="#29180F" stroke-width="2" stroke-linecap="round" stroke-linejoin="round"/>
<path d="M1.5 20H20.5" stroke="black" stroke-width="2"/>
</svg>
